<svg width="176" height="176" viewBox="0 0 176 176" fill="none" xmlns="http://www.w3.org/2000/svg">
<circle cx="88" cy="88" r="88" fill="#B8D2EA"/>
<path d="M110.754 74.7451C110.754 91.8489 99.65 103.875 88 103.875C76.35 103.875 65.2462 91.8489 65.2462 74.7451C65.2462 57.6413 76.35 45.6154 88 45.6154C99.65 45.6154 110.754 57.6413 110.754 74.7451Z" stroke="#22405C" stroke-width="10"/>
<mask id="path-3-inside-1_4_9" fill="white">
<path fill-rule="evenodd" clip-rule="evenodd" d="M146.34 144.523C131.575 159.76 110.893 169.231 88 169.231C65.1065 169.231 44.4251 159.76 29.6597 144.523C44.4251 129.286 65.1065 119.815 88 119.815C110.893 119.815 131.575 129.286 146.34 144.523Z"/>
</mask>
<path d="M146.34 144.523L153.522 151.482L160.265 144.523L153.522 137.564L146.34 144.523ZM29.6597 144.523L22.4783 137.564L15.7347 144.523L22.4783 151.482L29.6597 144.523ZM139.159 137.564C126.199 150.938 108.077 159.231 88 159.231V179.231C113.71 179.231 136.95 168.583 153.522 151.482L139.159 137.564ZM88 159.231C67.9231 159.231 49.8007 150.938 36.841 137.564L22.4783 151.482C39.0494 168.583 62.2899 179.231 88 179.231V159.231ZM36.841 151.482C49.8007 138.108 67.9231 129.815 88 129.815V109.815C62.2899 109.815 39.0494 120.464 22.4783 137.564L36.841 151.482ZM88 129.815C108.077 129.815 126.199 138.108 139.159 151.482L153.522 137.564C136.95 120.464 113.71 109.815 88 109.815V129.815Z" fill="#22405C" mask="url(#path-3-inside-1_4_9)"/>
<path d="M146.34 144.523L153.522 151.482L160.265 144.523L153.522 137.564L146.34 144.523ZM29.6597 144.523L22.4783 137.564L15.7347 144.523L22.4783 151.482L29.6597 144.523ZM139.159 137.564C126.199 150.938 108.077 159.231 88 159.231V179.231C113.71 179.231 136.95 168.583 153.522 151.482L139.159 137.564ZM88 159.231C67.9231 159.231 49.8007 150.938 36.841 137.564L22.4783 151.482C39.0494 168.583 62.2899 179.231 88 179.231V159.231ZM36.841 151.482C49.8007 138.108 67.9231 129.815 88 129.815V109.815C62.2899 109.815 39.0494 120.464 22.4783 137.564L36.841 151.482ZM88 129.815C108.077 129.815 126.199 138.108 139.159 151.482L153.522 137.564C136.95 120.464 113.71 109.815 88 109.815V129.815Z" fill="#22405C" mask="url(#path-3-inside-1_4_9)"/>
</svg>
